<svg xmlns="http://www.w3.org/2000/svg" width="512" height="512"><path d="M256 512C114.8 512 0 397.2 0 256S114.8 0 256 0s256 114.8 256 256-114.8 256-256 256zm215.9-221c-7.5-2.4-67.7-20.3-136.2-9.3 28.6 78.6 40.2 142.6 42.5 155.9 49-33.2 84-85.7 93.7-146.6zM341.4 457.6c-3.3-19.2-15.9-86-46.6-165.8-.5.2-1 .3-1.4.5-123.4 43-167.7 128.5-171.6 136.5C158.9 457.7 205.5 475 256 475c30.3 0 59.2-6.2 85.4-17.4zM93.5 402.5c5-8.5 65-107.8 177.7-144.3 2.8-.9 5.7-1.8 8.6-2.6-5.5-12.4-11.5-24.9-17.7-37.1C153 251.2 47 249.8 37.4 249.7c-.1 2.2-.1 4.4-.1 6.7 0 56.1 21.3 107.4 56.2 146.1zM42 211.5c9.8.1 99.9.5 202.2-26.6-36.2-64.4-75.3-118.6-81.1-126.5-61.2 28.9-107 85.3-121.1 153.1zM204.8 43.7c6 8.1 45.8 62.2 81.6 128 77.8-29.1 110.7-73.4 114.6-79-38.6-34.3-89.4-55.1-145-55.1-17.6.1-34.8 2.2-51.2 6.1zm220.5 74.4c-4.6 6.2-41.3 53.2-122.1 86.2 5.1 10.4 10 21 14.5 31.7 1.6 3.8 3.2 7.5 4.7 11.3 72.8-9.1 145.1 5.5 152.3 7-.5-51.6-19-99-49.4-136.2z"/></svg>